<?xml version="1.0" standalone="no"?>
<!DOCTYPE svg PUBLIC "-//W3C//DTD SVG 1.1//EN" "http://www.w3.org/Graphics/SVG/1.1/DTD/svg11.dtd" >
<!--
2013-9-30: Created.
-->
<svg>
<metadata>
Created by iconfont
</metadata>
<defs>

<font id="iconfont" horiz-adv-x="1024" >
  <font-face
    font-family="iconfont"
    font-weight="500"
    font-stretch="normal"
    units-per-em="1024"
    ascent="896"
    descent="-128"
  />
    <missing-glyph />
    
    <glyph glyph-name="twitter" unicode="&#59153;" d="M512 896C228.693333 896 0 667.3066670000001 0 384s228.693333-512 512-512 512 228.693333 512 512S795.306667 896 512 896zM826.026667 541.013333c-17.066667-17.066667-27.306667-27.306667-27.306667-27.306667s6.826667-133.12-61.44-235.52-160.426667-163.84-290.133333-177.493333C317.44 93.866667 232.106667 145.06666700000005 232.106667 145.06666700000005s58.026667 3.413333 92.16 17.066667c37.546667 13.653333 88.746667 51.2 88.746667 51.2s-75.093333 23.893333-102.4 47.786667c-27.306667 27.306667-34.133333 40.96-34.133333 40.96l75.093333 0c0 0-78.506667 40.96-98.986667 75.093333-20.48 34.133333-23.893333 64.853333-23.893333 64.853333L283.306667 418.133333c0 0-47.786667 64.853333-54.613333 112.64C225.28 581.973333 238.933333 609.28 238.933333 609.28s23.893333-44.373333 122.88-95.573333c98.986667-51.2 180.906667-47.786667 180.906667-47.786667S512 578.56 607.573333 626.346667c98.986667 47.786667 163.84-34.133333 163.84-34.133333s17.066667 3.413333 30.72 10.24c13.653333 3.413333 30.72 13.653333 30.72 13.653333l-30.72-54.613333 47.786667 3.413333C849.92 564.906667 843.093333 558.0799999999999 826.026667 541.013333z"  horiz-adv-x="1024" />

    
    <glyph glyph-name="sex" unicode="&#58893;" d="M797.51005859 64.03681641000003l62.45507813 234.02460937c12.35126953 45.61171875-1.81494141 82.04238281-27.44824219 104.50898438-11.90830078 10.55654297-26.54033203 18.13007813-42.10136719 23.16533203-15.79306641 4.56943359-32.49404297 6.87568359-48.96298828 4.56943359-37.28671875-3.21591797-72.71630859-26.59306641-89.67041015-72.1836914-5.46855469-15.35888672-21.49365234-23.84121094-36.82265625-20.87929688-9.14238281 1.83955078-18.07382812 2.53828125-26.54033204 2.30449219-8.44541016-0.46582031-17.14482422-2.30449219-25.37841796-3.89267578-29.74921875-8.50429687-50.79990234-25.91455078-63.59501954-47.896875-10.30341797-16.98837891-15.56103516-36.70488281-15.3290039-56.86699219 0-20.16035156 5.02470703-39.85751953 15.3290039-56.84589844h0.23203125c13.04912109-21.53671875 34.07783203-39.43388672 63.82705079-47.21923828l0.44296875-0.21181641 1.37197265-0.23291015 0.44384766-0.23291016 46.68310547-12.1649414 0.90791015-0.44384766 184.15546875-49.50175781zM401.30878906 599.70029297l-0.4649414 0.93164062-14.653125 55.21640625c-5.93261719 21.79072266 1.62597656 38.98916016 14.42197265 50.43427735l1.603125 1.84042968c5.25761719 3.65976562 11.44335938 7.10859375 18.07382813 9.1819336 6.86162109 2.03115234 14.18818359 2.98300781 21.49541015 2.03115234 13.72412109-1.58642578 26.77148438-7.99716797 35.70205078-20.60595703 15.56103516-1.37548828 27.65917969-9.85869141 36.14677735-20.85996094 4.09570313-5.73222656 7.30546875-12.60878906 8.88925781-19.71738281v-1.84042969a42.27451172 42.27451172 0 0 0 0-20.16123047c-2.93466797-17.43222656-14.84296875-32.30507813-36.33662109-38.05839843l-56.28955078-15.12773438h-0.2109375c-5.95371094-1.37373047-12.37236328-0.67675781-17.41904297 2.30625-4.79267578 2.98300781-8.44541016 7.32128906-10.51435547 12.37587891v0.67675781l-0.44384766 1.37636719z m22.190625 66.23789062l11.19023438-41.69794922 40.96054687 10.98017579c4.11679688 1.37636719 8.46650391 3.44794922 9.37441407 8.27226562 0.23203125 1.37548828 0 3.65976562 0 5.26816406l-0.23203125 0.67675782c-0.44296875 1.84042969-1.35087891 3.89267578-2.30097657 5.73310546h-0.44296875c-2.49169922 3.44794922-6.39755859 5.50019531-11.88720703 4.80234375-9.14238281-1.35439453-18.76992187 3.21591797-21.95859375 12.16582032-2.30097656 5.50019531-6.41777344 8.48232422-10.53544922 8.71523437-2.04785156 0.44384766-4.09570313 0-6.39755859-0.23291015-1.58378906-0.44296875-3.20800781-1.84042969-4.56064453-2.75009766l-0.48603516-0.23203125c-2.72373047-2.30712891-4.11679688-6.41162109-2.72373047-11.70087891z m179.34169922 64.88525391l11.42226563 41.46503906c0.92900391 4.61162109-0.44296875 8.94902344-3.42070313 11.02236328-1.58378906 1.81933594-3.42070313 2.96191406-5.72167969 3.44882813-1.81494141 0.67763672-3.65273438 0.90966797-5.93261718 0.67763672h-0.48515625c-3.65273438-0.46669922-7.30546875-2.75009766-9.35332032-8.71699219-2.97685547-8.92792969-12.35126953-13.98427734-21.28271484-12.39697266-6.41865234 0.48691406-10.51435547-1.12148438-12.81621094-4.10449218-0.90791016-1.81933594-1.81582031-3.68085937-2.27988281-5.96601563-0.44296875-1.81845703-0.44296875-3.89267578 0-5.94492187 0.46494141-3.44882812 3.44179688-7.10859375 8.46650391-8.50429688h0.2109375l41.19257812-10.98017578z m48.49804688 31.83925781l-14.63203125-55.91425781-0.4631836-0.93076172-0.46582031-1.14257812v-0.90966797c-1.83691406-5.03525391-5.93261719-9.39287109-10.53544922-11.9109375-5.02470703-3.21503906-11.42226562-4.12558594-17.37685547-2.53828125h-0.44296875l-55.38164062 14.91503906v0.44384766h-0.44296875c-21.49365234 5.52128906-33.40195312 21.09199219-36.61171875 38.05927734-1.35087891 7.0875-1.35087891 15.12597656 0 22.00166016 1.62597656 7.10859375 4.60283203 14.428125 9.16347656 20.39414062 8.21425781 11.00126953 20.35371094 18.57480469 35.91474609 19.71738281 8.44541016 12.84257813 20.81865234 19.03974609 33.84580078 20.85996094l1.13994141 0.21181641c7.34765625 0.48691406 14.88515625 0 21.98056641-2.2640625 6.86074219-2.30625 13.72412109-5.52128906 19.21376953-10.78945313 13.04648438-11.23417969 21.02695313-29.55498047 15.09433594-50.203125z m-60.40634766-253.95380859l10.97929687 41.71904297c1.39482422 4.80234375-0.44384766 9.16171875-3.42070312 11.44511718-1.13994141 1.37548828-3.44179688 2.77119141-5.48964844 3.21679688-2.06894531 0.4640625-4.13789063 0.67587891-5.72167969 0.4640625h-0.44208984c-3.67470703-0.4640625-7.32744141-3.21503906-9.39638672-8.69501953-3.42070313-8.71611328-12.58417969-13.77158203-21.95859375-12.39697266-5.48964844 0.69785156-9.83935547-1.37373047-12.11923828-4.8234375-1.37197266-1.58642578-2.30097656-3.89267578-2.74482422-5.96601562v-0.44384766c-0.46494141-1.60751953-0.46494141-3.89179688 0-5.26816406 0.44296875-3.21591797 3.42070313-6.64277344 8.69853516-8.25117188l41.61533203-11.00039062z m48.51914062 31.64941406l-15.1171875-55.25859375v-0.90966797l-0.44384765-1.39482422-0.46494141-0.2118164c-1.83691406-5.52304688-5.48964844-10.09248047-10.07138672-12.84257813-5.48964844-2.72900391-11.44335938-3.68085937-17.81982422-2.05224609l-56.05751953 15.10664062h-0.253125c-21.49365234 5.52041016-33.16992188 20.39326172-36.56953125 37.84658203a49.12207031 49.12207031 0 0 0 0 20.16123047l0.44296875 1.81933594c1.83691406 7.10859375 4.58173828 13.98427734 8.91035157 19.71826172 8.02353516 11.00126953 20.35458984 19.48359375 35.91474609 20.85820312 8.48759766 12.60878906 21.05068359 19.01865234 33.86689453 20.64814454l0.92900391 0.2118164c7.76953125 0.90966797 15.075 0 22.16953125-2.28515625 6.62958984-2.07333984 13.49208984-5.96601562 19.00283203-11.00126953 13.26005859-11.46621094 21.02958984-29.11025391 15.56103515-50.4140625z m-30.67822265-492.37910156a267.07763672 267.07763672 0 0 0-15.98291016-7.3397461l-1.85800781-0.91054687c-9.14238281-3.19482422-18.98173828-6.87568359-28.37636719-9.62578125l-312.46435547-83.8828125-2.74482422-0.23291016c-13.74433594-2.98300781-27.91230469-0.44384766-39.33544921 6.19892578-12.37236328 7.31953125-21.51474609 18.99755859-25.63242188 33.46875l-83.71582031 313.10419922c-23.79550781 88.93916016 5.02470703 160.42412109 56.94433594 206.0569336 23.11962891 19.92832031 50.56787109 35.28808594 79.85214843 44.44804687 29.28515625 8.94902344 60.38525391 12.39697266 91.02216797 8.94902344 65.89775391-7.10859375 129.02783203-43.09453125 164.26582031-115.53134766 23.79550781 1.39746094 47.12607422-0.90966797 69.78164063-6.40986328 16.91191406-4.56943359 32.93789063-11.00126953 48.73095703-19.48359375 30.19306641 47.91708984 76.85419922 72.88066406 125.33203125 77.93701172 25.16835938 2.53828125 50.56787109 0 75.03837891-7.10859375 23.79550781-7.80644531 46.68310547-19.92832031 65.22099609-36.42978516 42.98818359-38.05927734 67.01572266-96.95654297 47.33701172-170.07099609l-65.87490234-247.1203125-0.46494141-0.67675781v-0.90966797c-3.65273438-11.46621094-10.97929687-20.88105469-20.35371094-27.26982422l-2.97685547-1.62861328c-10.51435547-6.40986328-23.33056641-8.71611328-36.14677734-5.94492188l-1.83691406 0.44384766-185.76123047 49.96933594zM501.26240234 378.74941406000005c-7.76953125-0.4640625-15.56015625-0.69785156-23.77441406-2.53828125-15.56103516-3.19482422-31.35410156 5.05634766-37.0546875 20.62705078-22.65556641 61.43642578-70.45664063 91.92128906-120.58154297 97.44345704-21.9375 2.053125-44.36015625 0-65.41083984-6.66386719-20.83798828-6.87568359-40.47451172-17.43222656-56.50048828-31.39541016-34.77480469-30.48574219-53.77675781-79.54541016-37.3078125-140.96074219l81.45703125-303.96621093 262.84570312 70.38632812c-26.32851562 14.44833984-46.21816406 35.07539062-60.40546875 58.89638672v0.46582031c-16.46894531 26.59306641-24.68320312 58.22050781-24.68320312 89.61591797 0 31.41650391 7.76953125 62.57988281 24.23847656 90.08261719 13.26005859 22.93066406 32.49492188 43.09189453 57.17724609 58.00693359z"  horiz-adv-x="1024" />

    
    <glyph glyph-name="inspiration" unicode="&#58940;" d="M512 683.99999971c-155.62500029 0-281.25-125.62499971-281.25-281.25 0-103.12499971 54.37500029-193.12499971 136.87499971-241.875l45-95.625h196.875l45 95.625c82.50000029 48.75000029 136.87499971 138.75000029 136.87500058 241.875 1.87499971 155.62500029-125.62499971 281.25-279.37500029 281.25z m105.00000029-479.99999971l-35.62500058-82.50000029h-140.625l-35.62499971 82.50000029c-71.25000029 37.50000029-119.99999971 112.5-119.99999971 198.74999971 0 123.75 101.25 225 225 225s225-101.25 225-225c1.87499971-86.24999971-46.87499971-161.25000029-118.125-198.74999971zM491.37499971 421.50000029h-50.625c0 82.50000029 67.5 150.00000029 150.00000029 149.99999942v-50.625c-54.37500029 0-99.37500029-45-99.37500029-99.37499942zM474.49999971 27.750000290000003h-56.25c0-52.49999971 41.24999971-93.75000029 93.75000029-93.75000029s93.75000029 41.24999971 93.75000029 93.75000029h-56.25c0-20.62500029-16.875-37.50000029-37.50000029-37.50000029s-37.50000029 16.875-37.50000029 37.50000029zM482.00000029 805.875c0 15.00000029 13.12499971 28.125 28.125 28.125s28.125-13.12499971 28.125-28.125v-56.25c0-15.00000029-13.12499971-28.125-28.125-28.125s-28.125 13.12499971-28.125 28.125v56.25zM830.75000029 430.87499971c0 15.00000029 13.12499971 28.125 28.125 28.125h56.25c15.00000029 0 28.125-13.12499971 28.125-28.125s-13.12499971-28.125-28.125-28.125h-56.25c-16.875 0-28.125 13.12499971-28.125 28.125zM755.74999971 640.87500029c-11.25 11.25-11.25 28.125 0 39.375l39.375 39.375c11.25 11.25 28.125 11.25 39.375 0 11.25-11.25 11.25-28.125 0-39.375l-39.375-39.375c-11.25-11.25-28.125-11.25-39.375 0zM273.87500029 640.87500029c11.25 11.25 11.25 28.125 0 39.375l-39.375 39.375c-11.25 11.25-28.125 11.25-39.375 0-11.25-11.25-11.25-28.125 0-39.375l39.375-39.375c9.37500029-11.25 28.125-11.25 39.375 0zM80.74999971 430.87499971c0 15.00000029 13.12499971 28.125 28.125 28.125h56.25c15.00000029 0 28.125-13.12499971 28.125-28.125s-13.12499971-28.125-28.125-28.125h-56.25c-16.875 0-28.125 13.12499971-28.125 28.125z"  horiz-adv-x="1024" />

    
    <glyph glyph-name="tags" unicode="&#59012;" d="M778.406 317.55499999999995c0 16.618-5.81 31.184-17.429 43.659L424.128 703.789c-11.927 12.167-27.941 22.473-48.049 30.95-20.102 8.477-38.47 12.721-55.122 12.721H124.972c-16.322 0-30.463-6.089-42.39-18.24-11.944-12.151-17.915-26.543-17.915-43.184v-199.603c0-16.954 4.16-35.652 12.486-56.128 8.331-20.476 18.463-36.625 30.39-48.468l336.843-343.531c11.625-11.843 25.76-17.764 42.396-17.764 16.339 0 30.636 5.922 42.882 17.764l231.319 236.066c11.613 11.837 17.423 26.218 17.423 43.183zM258.069 550.501c-11.781-12-25.99-17.999-42.636-17.999-16.646 0-30.86 6-42.636 17.999-11.776 11.988-17.664 26.459-17.664 43.413 0 16.954 5.888 31.43 17.664 43.419 11.776 11.994 25.99 17.994 42.636 17.994 16.646 0 30.854-6 42.636-17.994 11.776-11.988 17.669-26.465 17.669-43.419 0-16.954-5.893-31.425-17.669-43.413z m683.813-189.287L605.039 703.789c-11.932 12.162-27.952 22.473-48.065 30.938-20.085 8.488-38.465 12.721-55.111 12.721h-105.53c16.646 0 35.015-4.233 55.116-12.721 20.107-8.477 36.122-18.777 48.054-30.938l336.849-342.575c11.625-12.475 17.446-27.041 17.446-43.659 0-16.965-5.821-31.346-17.446-43.184L614.93 48.851c9.433-9.919 17.748-17.099 24.966-21.584 7.224-4.479 16.495-6.727 27.796-6.727 16.339 0 30.631 5.922 42.876 17.764L941.881 274.37c11.625 11.837 17.451 26.219 17.451 43.184-0.015 16.619-5.825 31.185-17.45 43.66z"  horiz-adv-x="1024" />

    
    <glyph glyph-name="about" unicode="&#59194;" d="M513.413 833.947C264.112 833.947 62 631.764 62 382.36400000000003c0-249.404 202.113-451.598 451.413-451.598 249.302 0 451.413 202.196 451.413 451.598 0 249.401-202.112 451.583-451.413 451.583z m-74.532-696.734c-26.083 0-44.165 12.412-44.165 40.196 0 35.093 24.603 95.051 29.674 107.494l50.653 128.678c5.073 13.134-1.448 19.719-7.244 19.719-26.776 0-61.489-63.598-74.5-63.598-5.103 0-9.42 5.134-9.42 9.513 0 13.167 31.817 43.849 41.235 53.361 28.951 27.783 66.563 48.983 108.521 48.983 31.123 0 64.419-18.995 38.368-89.932L519.901 249.09000000000003c-4.347-10.977-12.286-29.281-12.286-40.936 0-5.134 2.867-10.268 8.663-10.268 21.705 0 61.521 62.165 71.666 62.165 3.59 0 8.662-4.395 8.662-10.961 0.001-21.216-84.643-111.875-157.725-111.875zM563.309 507.86c-29.674 0-49.205 19.75-49.205 49.739 0 32.161 27.501 58.478 59.348 58.478 28.951 0 49.931-19.734 49.931-49.721 0-33.626-27.501-58.495-60.073-58.495z"  horiz-adv-x="1024" />

    
    <glyph glyph-name="tag" unicode="&#59176;" d="M333.48266667 636.35911111c0 20.36622222-7.22488889 37.77422222-21.61777778 52.224-14.39288889 14.39288889-31.80088889 21.61777778-52.224 21.61777778-20.36622222 0-37.77422222-7.22488889-52.224-21.61777778s-21.61777778-31.80088889-21.61777778-52.224c0-20.36622222 7.22488889-37.77422222 21.61777778-52.224 14.39288889-14.39288889 31.80088889-21.61777778 52.224-21.61777778 20.36622222 0 37.77422222 7.22488889 52.224 21.61777778 14.39288889 14.44977778 21.61777778 31.80088889 21.61777778 52.224z m615.424-332.23111111c0-20.36622222-7.11111111-37.66044445-21.33333334-51.88266667l-283.19288888-283.76177778c-15.01866667-14.22222222-32.48355555-21.33333333-52.50844445-21.33333333-20.36622222 0-37.66044445 7.11111111-51.88266667 21.33333333l-412.38755555 412.95644445c-14.62044445 14.22222222-27.02222222 33.62133333-37.20533333 58.25422222C80.21333333 464.27022222 75.09333333 486.74133333 75.09333333 507.16444445V747.06488889c0 19.968 7.28177778 37.31911111 21.90222222 51.88266666s31.91466667 21.90222222 51.88266667 21.90222223h239.95733333c20.36622222 0 42.89422222-5.12 67.47022223-15.30311111 24.63288889-10.18311111 44.20266667-22.58488889 58.82311111-37.20533334l412.38755556-411.81866666c14.27911111-14.90488889 21.39022222-32.42666667 21.39022222-52.39466667z"  horiz-adv-x="1024" />

    
    <glyph glyph-name="alipay" unicode="&#58923;" d="M624.439216-128c283.836007 0 516.015686 230.354367 516.015686 512S908.275223 896 624.439216 896 108.606061 665.828164 108.606061 384.182531c0-281.645633 232.179679-512.182531 515.833155-512.182531z m-51.473797 700.919786v83.234225h93.455971v-83.234225h190.197505v-38.331551H666.42139v-51.291265h158.072015c-4.56328-28.474866-12.22959-56.402139-22.633868-83.234225-19.348307-54.394296-38.696613-79.948663-38.696614-79.948663l306.287344-99.29697c-6.388592-18.618182-13.872371-36.68877-22.633868-54.394296-9.491622-17.888057-20.260963-35.045989-32.308021-51.291265L720.998217 252.76007100000004s-54.759358-60.782888-112.986809-86.337255c-54.759358-25.554367-122.478431-44.720143-190.197504-25.554367-71.004635 16.062745-119.375401 60.782888-112.804278 144.017112 9.674153 83.234225 96.741533 112.074153 171.031729 112.074154 74.107665 0 209.545811-48.005704 209.545811-48.005704 8.578966 17.705526 16.245276 35.776114 22.633868 54.394296 7.66631 17.157932 12.047059 35.593583 12.959715 54.394295h-290.224599v28.839929h141.826738V540.976827h-177.420321v38.331551h177.420321l0.182531-6.388592z m80.678788-288.034225s-87.06738-102.4-190.197505-102.4-125.763993 48.005704-125.763993 83.234225 22.633868 73.560071 109.701248 79.948663c86.884848 6.388592 206.077718-60.782888 206.26025-60.782888z m0 0"  horiz-adv-x="1327" />

    
    <glyph glyph-name="wechat" unicode="&#58880;" d="M472.448 539.114c0-19.584 15.874-35.458 35.453-35.458 19.585 0 35.457 15.874 35.457 35.458a35.46 35.46 0 0 1-17.728 30.705 35.46 35.46 0 0 1-35.454 0 35.462 35.462 0 0 1-17.728-30.705z m0 0M327.14 574.567c-19.564 0-35.427-15.863-35.427-35.427 0-19.569 15.863-35.432 35.427-35.432 19.57 0 35.433 15.863 35.433 35.432 0 19.564-15.863 35.427-35.433 35.427z m0 0M567.707 355.84000000000003c0-15.324 12.422-27.752 27.747-27.752 15.329 0 27.752 12.428 27.752 27.752 0 15.325-12.423 27.753-27.752 27.753-15.325 0-27.747-12.428-27.747-27.753z m0 0M511.998 896C229.222 896 0 666.78 0 384.004 0 101.22900000000004 229.222-128 511.998-128S1024 101.22900000000004 1024 384.004C1024 666.78 794.773 896 511.998 896z m-98.684-654.798c-31.848 0-57.447 6.506-89.374 12.801l-89.188-44.696 25.523 76.726c-63.872 44.62-102.093 102.144-102.093 172.235 0 121.395 114.869 216.957 255.106 216.957 125.435 0 235.311-76.361 257.403-179.172a217.037 217.037 0 0 1-24.547 1.513c-121.191 0-216.911-90.449-216.911-201.909 0-18.559 2.896-36.402 7.885-53.454-7.859-0.592-15.795-1.001-23.804-1.001z m376.292-89.343l19.2-63.77-69.968 38.325c-25.522-6.398-51.121-12.804-76.54-12.804-121.37 0-216.987 82.945-216.987 185.114 0 101.992 95.592 185.141 216.987 185.141C776.933 483.867 879 400.717 879 298.726c-0.025-57.524-38.171-108.465-89.394-146.867z m0 0M706.714 355.84000000000003c0-15.324 12.423-27.752 27.747-27.752 15.329 0 27.752 12.428 27.752 27.752 0 15.325-12.423 27.753-27.752 27.753-15.324 0-27.747-12.428-27.747-27.753z m0 0"  horiz-adv-x="1024" />

    
    <glyph glyph-name="weibo" unicode="&#58897;" d="M512-128a512 512 0 1 0 512 512 511.720727 511.720727 0 0 0-512-512z m28.392727 600.901818c-12.101818-1.396364-50.269091-26.065455-28.858182 24.669091a64.837818 64.837818 0 0 1-23.272727 70.749091 215.738182 215.738182 0 0 1-112.64-9.774545 529.268364 529.268364 0 0 1-227.607273-247.621819c-44.683636-142.894545 111.709091-229.934545 228.072728-247.621818s290.909091 11.170909 370.036363 107.985455c58.647273 70.749091 69.818182 167.098182-40.96 195.025454-36.770909 8.843636-15.36 24.203636-6.050909 50.269091a61.765818 61.765818 0 0 1-48.407272 72.145455 46.545455 46.545455 0 0 1-7.447273 0.930909 277.550545 277.550545 0 0 1-102.865455-16.756364z m155.927273 86.574546a51.805091 51.805091 0 0 1-42.356364-12.101819c-5.585455-10.705455-9.309091-29.789091 21.410909-36.770909a168.96 168.96 0 0 0 30.254546-4.189091 40.866909 40.866909 0 0 0 27.461818-46.08c-4.654545-42.821818 19.549091-49.803636 36.770909-38.167272a36.631273 36.631273 0 0 1 13.963637 29.789091 91.648 91.648 0 0 1-74.007273 106.123636 71.028364 71.028364 0 0 1-13.963637 1.396364h0.465455z m165.236364-1.861819a187.205818 187.205818 0 0 1-152.203637 102.4c-25.134545 2.792727-78.196364 8.843636-84.247272-25.6a26.018909 26.018909 0 0 1 19.083636-31.185454c0.930909 0 1.861818-0.465455 2.792727-0.465455a219.042909 219.042909 0 0 1 34.909091 1.396364 144.290909 144.290909 0 0 0 145.221818-143.36 139.636364 139.636364 0 0 0-1.396363-20.014545c-1.396364-7.912727-2.327273-15.825455-3.258182-23.738182a28.439273 28.439273 0 0 1 21.876363-33.047273 27.927273 27.927273 0 0 1 29.789091 14.429091 219.461818 219.461818 0 0 1-13.032727 159.185454h0.465455z m-402.618182-450.56c-121.483636-15.36-228.072727 37.236364-237.847273 117.294546s79.592727 157.323636 201.076364 172.683636 228.072727-37.236364 238.312727-117.294545-80.523636-157.789091-202.007273-172.683637h0.465455z m-33.047273 228.538182a115.339636 115.339636 0 0 1-119.156364-109.381818 103.796364 103.796364 0 0 1 109.847273-97.745454 63.069091 63.069091 0 0 1 9.309091 0.930909 122.507636 122.507636 0 0 1 115.432727 114.501818 99.560727 99.560727 0 0 1-105.658181 93.090909l-9.774546-1.396364z m22.341818-94.487272a14.894545 14.894545 0 0 0-17.221818 12.101818v1.861818a16.942545 16.942545 0 0 0 17.221818 15.825454 14.289455 14.289455 0 0 0 16.290909-12.101818 1.722182 1.722182 0 0 0 0.465455-1.396363 17.966545 17.966545 0 0 0-16.756364-16.290909zM386.327273 179.20000000000005a36.724364 36.724364 0 0 0-41.425455 31.650909 5.911273 5.911273 0 0 0-0.465454 2.792727 41.053091 41.053091 0 0 0 41.890909 38.632728 34.769455 34.769455 0 0 0 40.494545-28.858182 10.24 10.24 0 0 0 0.465455-3.723637 43.613091 43.613091 0 0 0-40.96-40.494545z"  horiz-adv-x="1024" />

    
    <glyph glyph-name="recommend" unicode="&#59065;" d="M585.27288889 735.232c53.13422222-103.424 134.94044445-165.54666667 245.41866666-186.48177778 110.47822222-20.93511111 126.86222222-73.84177778 49.26577778-158.72s-108.77155555-185.344-93.63911111-301.73866667c15.01866667-116.39466667-27.98933333-149.04888889-129.024-98.07644444s-202.18311111 50.97244445-303.33155555 0-144.04266667-18.20444445-129.024 98.07644444c15.01866667 116.39466667-16.15644445 216.97422222-93.75288889 301.73866667-77.59644445 84.87822222-61.09866667 137.78488889 49.26577777 158.72 110.47822222 20.93511111 192.28444445 83.05777778 245.41866667 186.48177778 53.02044445 103.424 106.26844445 103.424 159.40266667 0z"  horiz-adv-x="1024" />

    
    <glyph glyph-name="game" unicode="&#59078;" d="M626.1 633.6h-79.9v79.9c0 22.1-17.9 40-40 40s-40-17.9-40-40v-79.9h-79.9c-165.7 0-300-134.3-300-300s134.3-300 300-300h240c165.7 0 300 134.3 300 300s-134.6 300-300.2 300z m-210-320h-50v-50c0-16.5-13.4-30-30-30-16.5 0-30 13.4-30 30v50h-50c-16.5 0-30 13.4-30 30 0 16.5 13.4 30 30 30h50v50c0 16.5 13.4 30 30 30 16.5 0 30-13.4 30-30v-50h50c16.5 0 30-13.4 30-30-0.1-16.6-13.5-30-30-30z m220 40c-27.7 0-50 22.3-50 50s22.3 50 50 50 50-22.3 50-50c0-27.6-22.4-50-50-50z m100-119.9c-27.7 0-50 22.3-50 50s22.3 50 50 50 50-22.3 50-50-22.4-50-50-50z"  horiz-adv-x="1024" />

    
    <glyph glyph-name="share" unicode="&#59093;" d="M506.08355555 844.68622222C254.86222222 844.68622222 51.31377778 641.13777778 51.31377778 389.91644445S254.86222222-64.85333333000005 506.08355555-64.85333333000005s454.76977778 203.54844445 454.76977778 454.76977778c0.11377778 251.10755555-203.54844445 454.76977778-454.76977778 454.76977777z m277.27644445-459.88977777L542.60622222 205.48266666999996c-4.20977778-3.29955555-9.55733333-5.23377778-15.36-5.23377778-13.42577778 0-24.34844445 10.35377778-25.25866667 23.43822222v88.40533334h-67.12888888c-83.39911111 0-158.83377778-32.31288889-214.92622222-85.10577778-1.82044445-1.36533333-3.98222222-2.27555555-6.48533334-2.27555556-5.80266667 0-10.58133333 4.66488889-10.58133333 10.46755556 0 0.56888889 0.11377778 1.13777778 0.11377777 1.70666666 28.10311111 138.12622222 152.68977778 242.91555555 299.008 248.71822222v89.20177778c1.024 13.08444445 11.83288889 23.43822222 25.25866667 23.43822222 5.46133333 0 10.69511111-1.82044445 14.79111111-4.89244444l241.55022222-179.88266666c3.98222222-3.52711111 6.59911111-8.64711111 6.59911112-14.22222223 0.11377778-5.80266667-2.61688889-10.92266667-6.82666667-14.44977777z"  horiz-adv-x="1024" />

    
    <glyph glyph-name="design" unicode="&#58936;" d="M662.00000029 834H361.99999971A299.99999971 299.99999971 0 0 1 62 534.00000029v-300.00000058a299.99999971 299.99999971 0 0 1 299.99999971-299.99999971h300.00000058a299.99999971 299.99999971 0 0 1 299.99999971 299.99999971V534.00000029A299.99999971 299.99999971 0 0 1 662.00000029 834z m-29.00000039-172.59999961a43.49999971 43.49999971 0 0 0 63 0l86.0000001-86.0000001a46.50000029 46.50000029 0 0 0 0-64.00000019l-87.00000029-88.00000049-149.0000001 150.00000029z m-199.00000019-499.00000078a94.3999998 94.3999998 0 0 0-32.99999942-19.99999951l-135-37.0000002a29.99999971 29.99999971 0 0 0-38.00000039 38.00000039l36 135a79.3000002 79.3000002 0 0 0 20.00000039 32.99999942l34.99999981 35.00000068 149.00000009-150.00000029z m349.00000048 26.00000068l-81-81a48.89999971 48.89999971 0 0 0-69.00000029 0l-42.00000029 41.99999942 71.00000068 71.00000068a24.6999999 24.6999999 0 0 1-35.00000068 34.99999981L555.9999998 183.99999961000003l-34.9999998 35.00000068 42.00000029 41.99999942a24.6999999 24.6999999 0 0 1-35.00000068 35.00000068L486.00000019 254.00000009999997l-32.00000009 33.99999961 70.9999998 71.00000068a26.1 26.1 0 0 1 0 34.9999998 24.1999998 24.1999998 0 0 1-34.9999998 0l-70.99999981-70.9999998-35.00000068 34.9999998 42.00000029 41.99999942a24.6999999 24.6999999 0 0 1-34.9999998 35.00000068l-42.00000029-42.00000029-34.99999981 34.9999998 70.99999981 70.99999981a24.6999999 24.6999999 0 0 1-34.99999981 35.00000068l-70.99999981-71.00000068-38.00000039 38.00000039a48.89999971 48.89999971 0 0 0 0 69.00000029l81 81a48.89999971 48.89999971 0 0 0 69.0000003 0l392.00000009-394.00000049a48.89999971 48.89999971 0 0 0 1e-8-68.59999951z"  horiz-adv-x="1024" />

    
    <glyph glyph-name="home" unicode="&#58929;" d="M919.14666667 390.50666667H103.78666667c-13.86666667 0-26.45333333 8.42666667-31.78666667 21.22666666-5.33333333 12.8-2.34666667 27.62666667 7.46666667 37.54666667l327.46666666 327.46666667c27.84 27.84 64.96 43.2 104.53333334 43.2s76.69333333-15.36 104.53333333-43.2l327.46666667-327.46666667c9.81333333-9.81333333 12.8-24.64 7.46666666-37.54666667-5.33333333-12.90666667-17.81333333-21.22666667-31.78666666-21.22666666zM683.94666667-51.09333332999995h-33.6c-18.98666667 0-34.45333333 15.36-34.45333334 34.45333333v82.56c0 24.64-20.05333333 44.90666667-44.69333333 45.22666667-23.78666667-0.32-43.84-20.58666667-43.84-45.22666667v-82.56c0-18.98666667-15.36-34.45333333-34.45333333-34.45333333H338.98666667c-75.62666667 0-137.28 67.94666667-137.28 151.36V309.44000000000005c0 18.98666667 15.36 34.45333333 34.45333333 34.45333333h550.61333333c18.98666667 0 34.45333333-15.36 34.45333334-34.45333333V100.26666666999995c-0.10666667-83.52-61.65333333-151.36-137.28-151.36z"  horiz-adv-x="1024" />

    
    <glyph glyph-name="gps" unicode="&#58927;" d="M511.3 553.8c-44.1 0-80-35.9-80-80s35.9-80 80-80 80 35.9 80 80-35.8 80-80 80zM728.5 762.4c-2.2 1.6-4.5 3-6.8 4.5-1.2 1.1-2.5 2-3.9 2.9-3 1.9-6 3.7-9 5.5l-4.9 2.9c-23.9 14.2-49.3 25.7-75.4 34.2l-3.9 1.2c-7.4 2.3-15 4.5-23.5 6.6l-3.9 0.9c-9.2 2.1-17.6 3.8-25 5-0.4 0.1-1.2 0.2-1.7 0.3-9.1 1.4-18.6 2.5-28.1 3.3l-4.2 0.3c-7.5 0.5-15.1 0.8-22.8 0.9-2.8 0.2-5.5 0.1-8.3 0h-1.2l-9.9-0.3c-4.9-0.2-9.7-0.5-14.7-0.9l-5.3-0.5c-6.3-0.6-12.6-1.3-19.6-2.3-12.8-1.9-24.1-4-34.6-6.6-1.7-0.4-3.3-0.9-5-1.6-16-4.1-31.3-9.1-45.7-14.8-33-13.2-64-31.1-92.3-53.2-1.4-0.8-2.7-1.7-3.9-2.7-89.8-72.1-141.4-179.5-141.4-294.6 0-89.8 32.2-176.9 90.6-245.2 0.3-0.4 0.6-0.7 1-1.1 2.5-2.7 24.1-25.9 37.1-37.5l223.1-223.1c7.1-7.1 16.5-10.7 25.8-10.7s18.7 3.6 25.8 10.7L760 169.60000000000002c13.1 11.6 34.7 34.8 37.1 37.5 0.3 0.4 0.7 0.7 1 1.1 58.4 68.3 90.6 155.4 90.6 245.2 0.2 122.7-59.8 238.2-160.2 309zM511.3 320.6c-84.4 0-153.1 68.7-153.1 153.1 0 84.4 68.7 153.1 153.1 153.1 84.4 0 153.1-68.7 153.1-153.1 0.1-84.4-68.6-153.1-153.1-153.1z"  horiz-adv-x="1024" />

    
    <glyph glyph-name="develop" unicode="&#58931;" d="M804-5.100000000000023H223c-19.9 0-36.1 16.2-36.1 36.1s16.2 36.1 36.1 36.1h581c19.9 0 36.1-16.2 36.1-36.1s-16.2-36.1-36.1-36.1zM787.6 770.2H239.3c-88.2 0-159.9-71.7-159.9-159.9V306c0-88.2 71.7-159.9 159.9-159.9h548.4c88.2 0 159.9 71.7 159.9 159.9V610.3c-0.1 88.2-71.8 159.9-160 159.9z m-107-435.8H346.3c-19.9 0-36.1 16.2-36.1 36.1s16.2 36.1 36.1 36.1h334.4c19.9 0 36.1-16.2 36.1-36.1s-16.2-36.1-36.2-36.1z m0 175.4H346.3c-19.9 0-36.1 16.2-36.1 36.1 0 19.9 16.2 36.1 36.1 36.1h334.4c19.9 0 36.1-16.2 36.1-36.1-0.1-20-16.2-36.1-36.2-36.1z"  horiz-adv-x="1024" />

    
    <glyph glyph-name="shop" unicode="&#58928;" d="M776.3 321.1c-54 0-101.9 26.3-131.6 66.7-29.8-40.4-77.7-66.7-131.6-66.7-53.9 0-101.8 26.3-131.6 66.7-6.3-8.6-13.4-16.5-21.3-23.8-33.6-30.8-79.1-46.2-124.9-42.3-83.5 7.3-148.9 80.7-148.9 167.1 0 21.3 5 42.7 14.6 61.8l73.1 146.3c26.4 52.7 79.3 85.4 138.2 85.4h401c58.9 0 111.9-32.7 138.2-85.4l73.3-146.7c9.4-18.7 14.4-39.7 14.6-60.6v-4.8c0.2-90.4-73.1-163.7-163.1-163.7zM776.3 265.29999999999995c-54 0-101.9 26.3-131.6 66.7-29.8-40.4-77.7-66.7-131.6-66.7-53.9 0-101.8 26.3-131.6 66.7-6.3-8.6-13.4-16.5-21.3-23.8-33.6-30.8-79.1-46.2-124.9-42.3-34.9 3-66.6 17.8-91.7 40.1v-171.8c0-82.5 67.1-149.6 149.6-149.6h439.7c82.5 0 149.6 67.1 149.6 149.6V304.79999999999995c-28.6-24.6-65.7-39.5-106.2-39.5z"  horiz-adv-x="1024" />

    
    <glyph glyph-name="social" unicode="&#58933;" d="M829.5 725.4H196.4C125 725.4 66.5 667 66.5 595.5v-313.8c0-71.4 58.4-129.9 129.9-129.9h23.5c19 0 35-14.5 36.8-33.4l8.5-87.8c1.6-16.4 22-23.2 33-10.9l63.9 70.9c35.1 38.9 85 61.2 137.5 61.2h329.8c71.4 0 129.9 58.4 129.9 129.9V595.5c0 71.4-58.4 129.9-129.8 129.9zM538.6 412.3H251.8c-20.9 0-37.9 17-37.9 37.9s17 37.9 37.9 37.9h286.8c20.9 0 37.9-17 37.9-37.9s-17-37.9-37.9-37.9z m235.4 0H669.8c-20.9 0-37.9 17-37.9 37.9s17 37.9 37.9 37.9H774c20.9 0 37.9-17 37.9-37.9s-17-37.9-37.9-37.9z"  horiz-adv-x="1024" />

    
    <glyph glyph-name="time" unicode="&#58939;" d="M512 832.1C264.5 832.1 63.9 631.5 63.9 384c0-247.5 200.7-448.2 448.2-448.2S960.2 136.39999999999998 960.2 384c0 247.5-200.6 448.1-448.2 448.1z m179.5-618.2c-7.8-9.5-19.1-14.5-30.6-14.5-8.8 0-17.6 2.9-25 8.9l-155 126.8a39.34 39.34 0 0 0-14.5 30.5V550.8c0 21.8 17.7 39.5 39.5 39.5s39.5-17.7 39.5-39.5v-166.4l140.6-115c16.8-13.8 19.3-38.7 5.5-55.5z"  horiz-adv-x="1024" />

    
    <glyph glyph-name="picture" unicode="&#58942;" d="M812.6 728.5H210.8c-80.9 0-146.7-65.8-146.7-146.7v-394.4c0-80.9 65.8-146.7 146.7-146.7h601.8c80.9 0 146.7 65.8 146.7 146.7V581.8c0 80.9-65.8 146.7-146.7 146.7z m-106-140.3c26.1 0 47.3-21.2 47.3-47.3s-21.2-47.3-47.3-47.3c-26.1 0-47.3 21.2-47.3 47.3s21.1 47.3 47.3 47.3z m87.6-381.8c-14-11.8-34.9-10-46.7 3.9l-107.4 127-122.8-109.8c-7.5-6.7-17.7-9.7-27.6-8-9.9 1.7-18.6 7.8-23.4 16.6l-90 161.8-135.6-208c-6.3-9.7-17-15-27.8-15-6.2 0-12.5 1.7-18.1 5.4-15.3 10-19.6 30.5-9.6 45.8l165.6 254c6.3 9.7 17.3 15.4 28.9 15 11.6-0.4 22.1-6.9 27.8-17L504 304.5l117.4 104.9c6.7 6 15.6 9 24.4 8.3 8.9-0.6 17.2-4.8 23-11.7l129.4-153c11.7-13.9 10-34.8-4-46.6z"  horiz-adv-x="1024" />

    
    <glyph glyph-name="tools" unicode="&#58947;" d="M782.4 797.8H243.6C163.3 797.8 98 732.4 98 652.1v-538.7c0-80.3 65.3-145.6 145.6-145.6h538.7c80.3 0 145.6 65.3 145.6 145.6V652.1c0.1 80.3-65.2 145.7-145.5 145.7zM441.6 196.89999999999998c12.8-12.8 12.8-33.7 0-46.5-6.4-6.4-14.8-9.6-23.3-9.6s-16.8 3.2-23.3 9.6l-37 37.1-37.1-37.1c-6.4-6.4-14.8-9.6-23.3-9.6s-16.8 3.2-23.3 9.6c-12.8 12.8-12.8 33.7 0 46.5l37.1 37.1-37.1 37.1c-12.8 12.8-12.8 33.7 0 46.5 12.8 12.8 33.7 12.8 46.5 0l37.1-37.1 37.1 37.1c12.8 12.8 33.7 12.8 46.5 0 12.8-12.8 12.8-33.7 0-46.5l-37-37.1 37.1-37.1z m1.7 306.5h-52.5v-52.5c0-18.2-14.7-32.9-32.9-32.9S325 432.7 325 450.9v52.5h-52.5c-18.2 0-32.9 14.7-32.9 32.9s14.7 32.9 32.9 32.9H325v52.5c0 18.2 14.7 32.9 32.9 32.9s32.9-14.7 32.9-32.9v-52.5h52.5c18.2 0 32.9-14.7 32.9-32.9s-14.7-32.9-32.9-32.9z m314-362.3H586.6c-18.2 0-32.9 14.7-32.9 32.9s14.7 32.9 32.9 32.9h170.7c18.2 0 32.9-14.7 32.9-32.9 0-18.1-14.7-32.9-32.9-32.9z m0 108.6H586.6c-18.2 0-32.9 14.7-32.9 32.9s14.7 32.9 32.9 32.9h170.7c18.2 0 32.9-14.7 32.9-32.9s-14.7-32.9-32.9-32.9z m0 253.7H586.6c-18.2 0-32.9 14.7-32.9 32.9s14.7 32.9 32.9 32.9h170.7c18.2 0 32.9-14.7 32.9-32.9s-14.7-32.9-32.9-32.9z"  horiz-adv-x="1024" />

    
    <glyph glyph-name="explore" unicode="&#58948;" d="M511 831.3C263.9 831.3 63.5 631 63.5 383.9S263.9-63.60000000000002 511-63.60000000000002s447.4 200.3 447.4 447.4S758.1 831.3 511 831.3zM760.4 584L593.8 312.79999999999995c-3-4.8-7-8.8-11.8-11.8L310.9 134.5c-5.8-3.6-12.3-5.3-18.8-5.3-9.3 0-18.4 3.6-25.4 10.5-11.7 11.7-13.9 30-5.2 44.1l166.6 271.1c3 4.8 7 8.8 11.8 11.8L711 633.3c14.1 8.7 32.4 6.6 44.1-5.2 11.8-11.7 14-30 5.3-44.1zM511 383.9m-40.8 0a40.8 40.8 0 1 1 81.6 0 40.8 40.8 0 1 1-81.6 0Z"  horiz-adv-x="1024" />

    
    <glyph glyph-name="instagram" unicode="&#58964;" d="M0 384C0 666.760533 229.239467 896 512 896c282.760533 0 512-229.239467 512-512 0-282.760533-229.239467-512-512-512-282.760533 0-512 229.239467-512 512z m512 273.066667c-74.1376 0-83.456-0.341333-112.571733-1.6384-29.0816-1.365333-48.913067-5.9392-66.286934-12.6976a133.700267 133.700267 0 0 1-48.366933-31.505067A134.0416 134.0416 0 0 1 253.269333 562.858667c-6.7584-17.339733-11.3664-37.205333-12.6976-66.2528-1.297067-29.149867-1.6384-38.434133-1.6384-112.64 0-74.1376 0.341333-83.421867 1.6384-112.5376 1.365333-29.0816 5.9392-48.913067 12.6976-66.286934 6.997333-17.954133 16.315733-33.1776 31.505067-48.366933 15.1552-15.189333 30.378667-24.541867 48.3328-31.505067 17.408-6.7584 37.205333-11.3664 66.286933-12.6976 29.149867-1.3312 38.434133-1.6384 112.605867-1.6384s83.421867 0.341333 112.571733 1.6384c29.047467 1.365333 48.913067 5.9392 66.286934 12.6976a133.597867 133.597867 0 0 1 48.366933 31.505067c15.189333 15.189333 24.507733 30.4128 31.505067 48.366933 6.724267 17.373867 11.332267 37.205333 12.6976 66.286934 1.297067 29.115733 1.6384 38.4 1.6384 112.571733s-0.341333 83.456-1.6384 112.605867c-1.365333 29.047467-5.973333 48.913067-12.6976 66.2528a134.007467 134.007467 0 0 1-31.505067 48.366933 133.461333 133.461333 0 0 1-48.366933 31.505067c-17.408 6.7584-37.2736 11.3664-66.321067 12.6976C595.387733 656.725333 586.1376 657.066667 511.931733 657.066667h0.1024z m145.783467-94.549334a32.768 32.768 0 1 0 0-65.536 32.768 32.768 0 0 0 0 65.536z m-145.749334-38.2976A140.219733 140.219733 0 1 0 512 243.78026699999998a140.219733 140.219733 0 0 0 0 280.439466z m0-49.186133a91.0336 91.0336 0 1 1 0-182.0672 91.0336 91.0336 0 0 1 0 182.0672z"  horiz-adv-x="1024" />

    
    <glyph glyph-name="jianshu" unicode="&#58892;" d="M512-128C229.230592-128 0 101.230592 0 384S229.230592 896 512 896s512-229.230592 512-512-229.230592-512-512-512zM241.553408 258.75455999999997v-186.67008l28.66176 3.30752c16.535552 1.836032 30.866432 5.511168 34.90816 8.818688 5.879808 5.511168 6.2464 19.10784 6.2464 181.89312V441.747456h30.49984c32.704512 0 39.318528 2.939904 39.318528 17.270784 0 9.921536-17.6384 46.667776-34.173952 71.6544l-11.758592 17.6384h-33.071104c-31.601664 0-32.704512 0.367616-23.885824 5.879808 5.144576 3.30752 19.10784 16.167936 31.601664 27.926528 21.312512 20.57728 23.150592 21.680128 38.58432 20.57728l16.167936-1.101824 8.818688-32.336896 9.186304-31.96928h24.620032c18.740224 0 26.457088 1.83808 33.071104 6.982656l8.452096 6.981632-6.61504 21.312512c-3.674112 12.126208-7.71584 23.8848-8.451072 26.089472-1.46944 3.675136 7.716864 4.77696 38.21568 4.77696 47.035392 0 50.341888 1.837056 54.016 32.336896l2.573312 19.10784H363.549696l5.512192 14.698496c8.818688 22.04672 4.041728 25.721856-36.378624 25.721856-27.927552 0-32.704512-1.102848-34.541568-6.2464-14.698496-46.667776-43.727872-86.720512-77.534208-106.195968l-15.80032-9.55392v-27.559936c0-31.60064-1.46944-31.234048 37.848064-11.758592 12.126208 5.878784 23.150592 9.921536 24.620032 8.818688 8.452096-5.144576 44.095488-83.0464 44.095488-95.906816 0-0.735232-15.80032-1.46944-34.90816-1.46944h-34.909184v-186.67008zM637.30688 78.69747199999995c4.042752-2.93888 19.47648-4.409344 45.198336-4.409344 35.2768 0 41.15456 1.101824 59.160576 9.921536 14.698496 7.71584 22.41536 14.697472 30.866432 28.29312l11.024384 18.006016 1.101824 194.38592 1.102848 194.019328H384.494592l2.572288-21.312512c4.409344-37.113856-12.4928-33.806336 166.827008-33.806336h158.00832V140.79999999999995l-8.08448-5.512192c-6.2464-4.409344-17.6384-5.878784-42.99264-5.878784h-34.541568l2.572288-23.150592c1.837056-14.33088 4.77696-24.619008 8.451072-27.558912zM495.099904 549.781504c0-26.82368 0.36864-27.558912 8.452096-25.35424 22.41536 6.981632 60.998656 31.234048 85.251072 54.016 26.457088 24.620032 27.191296 24.987648 47.034368 24.987648h19.843072l5.878784-21.312512c2.939904-11.390976 6.61504-26.457088 8.08448-33.071104l2.572288-11.758592h25.35424c14.331904 0 29.0304 1.837056 33.072128 3.674112 9.18528 5.144576 9.18528 22.782976-0.36864 43.727872-4.040704 8.818688-7.348224 16.535552-7.348224 17.270784 0 0.734208 18.740224 1.46944 41.890816 1.46944 48.503808 0 50.341888 1.102848 52.914176 31.601664L819.2 654.875648h-86.720512c-47.7696 0-86.720512 0.734208-86.720512 1.837056 0 0.735232 2.572288 7.349248 6.2464 14.33088 9.55392 20.578304 3.675136 24.252416-37.480448 24.252416h-34.173952l-2.204672-12.86144c-5.879808-30.866432-40.787968-79.003648-70.920192-97.743872-11.758592-7.349248-12.126208-8.08448-12.126208-34.90816z m-113.911808-264.57088V147.04639999999995l102.15424 1.46944c97.00864 1.101824 102.520832 1.837056 117.219328 9.55392 19.475456 10.289152 29.396992 20.57728 38.21568 39.318528 6.2464 13.228032 6.981632 25.35424 6.981632 120.159232V423.375872h-264.57088v-138.165248z m187.404288-75.696128c-6.981632-5.879808-15.80032-6.61504-64.672768-6.61504h-56.589312v62.468096h133.388288l-2.204672-24.619008c-1.470464-19.47648-3.675136-26.090496-9.921536-31.234048zM579.615744 344.37120000000004v-27.559936H447.330304v55.118848h132.28544v-27.558912z"  horiz-adv-x="1024" />

    
    <glyph glyph-name="500px" unicode="&#58896;" d="M512 896c282.79 0 512-229.21 512-512 0-282.79-229.21-512-512-512C229.21-128 0 101.21000000000004 0 384 0 666.79 229.21 896 512 896zM375.981 305.07000000000005c-11.578-3.787-16.31-8.666-14.345-14.564H362c0-1.82 1.675-6.19 5.025-13.326 9.539-23.083 23.374-43.69 41.579-61.895 17.767-17.767 38.52-31.748 62.259-41.943 23.739-10.194 49.006-15.292 75.876-15.292 26.797 0 52.138 5.098 75.876 15.292 23.739 10.195 44.492 24.176 62.26 41.943 17.985 17.986 31.966 38.594 41.942 61.895 10.195 24.394 15.292 49.662 15.292 75.876 0 25.996-5.097 51.41-15.292 76.24-9.976 23.302-23.957 43.91-41.943 61.896-17.767 17.767-38.52 31.748-62.259 41.943-23.738 10.194-49.006 15.292-75.876 15.292-27.088 0-52.72-5.098-76.896-15.292-10.194-4.224-22.209-10.996-35.971-20.316-13.763-9.321-25.05-18.642-33.934-27.962h-0.364V645.638H669.51c6.626 0 9.976 6.044 9.976 18.278 0 12.16-3.35 18.277-9.976 18.277H377.583c-3.786 0-6.845-1.31-9.175-3.86-2.33-2.548-3.495-5.46-3.495-8.81v-226.027c0-3.35 1.748-6.262 5.17-8.81 3.423-2.55 7.5-4.37 12.16-5.462 4.88-1.82 9.176-2.112 12.817-1.02 3.64 1.093 6.044 2.112 7.136 3.132 1.092 1.02 2.548 2.694 4.296 5.17l0.655 0.655c5.316 7.573 13.836 17.185 25.632 28.982 31.02 31.093 68.74 46.603 113.16 46.603 44.2 0 81.773-15.51 112.867-46.603 31.311-31.312 46.967-68.959 46.967-112.868 0-21.117-4.078-41.433-12.16-60.949-8.083-19.588-19.588-36.773-34.443-51.627-14.855-14.855-32.186-26.36-51.92-34.443-19.806-8.083-40.268-12.16-61.603-12.16-29.273 0-56.143 7.427-80.537 22.282v137.48c0 19.515 7.136 37.282 21.336 53.23 15.801 17.767 35.535 26.65 59.274 26.65 23.083 0 42.525-7.937 58.254-23.665 15.947-15.583 23.957-34.516 23.957-56.944 0-22.864-8.01-42.234-23.957-58.108-16.02-15.875-35.535-23.812-58.618-23.812-2.622 0-6.044 0.364-10.122 1.02-4.15 0.655-7.719 1.31-10.85 1.966l-4.66 1.02c-6.19 1.747-11.069-3.06-14.637-14.346-3.35-11.14-1.893-17.84 4.297-20.316 12.014-3.568 24.393-5.316 37.282-5.316 32.404 0 60.22 11.506 83.377 34.589 23.228 23.083 34.806 50.9 34.806 83.522 0 32.404-11.505 60.002-34.588 82.866-23.083 22.865-50.9 34.298-83.522 34.298-32.84 0-60.948-11.433-84.25-34.298-21.918-21.335-33.278-47.04-33.933-77.26v-113.45h-0.364c-13.253 15.074-24.03 33.57-32.259 55.56-2.184 6.19-8.883 7.574-19.952 4.006z m127.14 66.846l21.991-21.918-21.99-21.627c-1.821-2.257-2.695-4.15-2.695-5.68 0-3.13 1.966-6.335 5.971-9.684l0.655-0.656c3.568-3.568 6.99-5.315 10.34-5.315 2.258 0 3.933 0.582 5.025 1.674l21.99 21.991 20.536-20.389c2.038-2.257 4.15-3.35 6.335-3.35 3.276 0 6.845 1.894 10.631 5.68 6.19 6.19 6.99 11.651 2.33 16.312l-20.971 20.971 21.99 21.991c3.569 3.787 2.33 8.666-3.64 14.637-6.627 6.626-11.942 8.082-15.947 4.296l-21.627-21.627-21.627 21.991c-1.53 1.092-2.986 1.675-4.296 1.675-2.913 0-6.335-1.966-10.34-5.971-6.627-6.481-8.229-11.433-4.66-15z m231.706 168.5c0 2.185-1.02 4.224-2.985 5.899-21.7 20.899-47.769 37.72-78.206 50.608-33.788 14.2-68.813 21.336-105.222 21.336-37.501 0-70.706-6.335-99.542-18.933-2.84-0.874-4.66-3.058-5.316-6.626-0.218-2.913 0.728-7.136 2.695-12.67 4.005-10.413 9.029-14.491 15-12.307 28.617 10.85 57.744 16.311 87.236 16.311 32.84 0 63.497-6.189 91.896-18.64 22.428-9.322 45.365-24.104 68.885-44.274 1.53-1.53 3.35-2.33 5.316-2.33 2.84 0 7.209 2.912 12.962 8.665 2.403 2.913 4.223 5.243 5.46 6.99 1.239 1.748 1.821 3.787 1.821 5.972z m7.646-373.19c4.224 4.66 2.33 11.068-5.607 19.296-4.66 4.224-8.301 6.7-10.995 7.355-3.277 0.946-6.117 0.218-8.301-1.966l-1.967-1.966c-21.554-21.554-46.53-38.375-74.929-50.609-29.564-12.452-60.147-18.641-91.896-18.641-31.967 0-62.623 6.19-91.896 18.641-28.399 12.015-53.448 28.836-75.22 50.609-22.647 22.646-39.54 47.695-50.61 75.22-6.189 15.292-11.286 32.987-15.29 52.939 0 0.655-0.147 1.092-0.365 1.31-1.092 6.19-7.355 8.375-18.641 6.627-11.506-1.82-16.821-5.825-15.947-12.015 2.694-19.078 8.665-40.05 17.986-62.914 13.762-32.404 33.204-61.022 58.254-85.853 24.612-24.83 53.375-44.273 86.216-58.254 33.715-14.2 68.886-21.335 105.513-21.335 36.19 0 71.361 7.136 105.513 21.335 32.404 13.544 61.167 32.987 86.216 58.254l1.966 1.967z"  horiz-adv-x="1024" />

    
    <glyph glyph-name="qq" unicode="&#58881;" d="M512 896C229.224 896 0 666.7760000000001 0 384s229.224-512 512-512 512 229.224 512 512S794.776 896 512 896z m289.261-668.862c-21.732-18.64-49.948 61.346-54.006 49.039-9.88-29.924-14.507-49.93-43.634-82.508-1.555-1.745 33.659-14.469 43.634-41.643 9.557-26.017 28.14-67.262-93.488-80.213-71.358-7.585-122.937 38.02-128.076 37.584-9.538-0.834-5.29 0-15.53 0-8.382 0-8.932-0.606-16.82 0-2.162 0.171-25.885-37.584-131.964-37.584-82.223 0-103.519 51.75-86.983 80.213 16.536 28.463 44.127 36.75 40.24 41.263-19.153 22.187-32.351 45.91-40.24 67.357-1.953 5.347-3.584 10.543-4.873 15.53-2.997 11.454-25.885-67.204-50.46-49.038-24.577 18.167-22.377 64.418-6.467 108.677 16.042 44.62 56.471 87.59 56.927 97.072 1.611 35.29-3.49 41.15 0 50.422 7.755 20.764 17.199 12.8 17.199 23.571 0 135.737 100.864 245.76 225.28 245.76s225.28-110.042 225.28-245.76c0-5.196 13.52 0 19.987-23.571 1.327-4.873 2.238-23.666 0.664-50.422-0.74-12.857 34.266-28.502 52.375-97.072 18.129-68.57 0-100.92-9.045-108.677z"  horiz-adv-x="1024" />

    
    <glyph glyph-name="zhihu" unicode="&#58911;" d="M640.783488 157.35345199999995l64.501067 49.90633401h51.12711801V548.1133100100001h-143.63331001V207.25978598999995h13.39217101l14.61295399-49.90633399zM512 896C229.233879 896 0 666.766121 0 384s229.233879-512 512-512 512 229.233879 512 512S794.766121 896 512 896z m21.66434201-546.30946601h-118.087972l-19.459644-80.334804 27.986904 24.34277501s63.298505-73.046548 75.46989299-91.30363c10.93238399-18.220641 1.220783-82.77636999 1.22078301-82.77637l-108.33992901 135.124271s-34.090819-120.511317-80.334804-148.516441c-46.26220599-26.766121-93.726975-7.288256-93.72697499-7.28825701s65.721851 47.464769 101.033452 107.11914601c34.07259801 59.636157 46.24398599 142.412527 46.24398599 142.412527h-135.10605001s9.72982199 48.685552 27.98690402 49.906334 107.11914601 0 107.11914599 0L364.412811 546.892527l-51.01779299-2.441566s-9.72982199-36.441281-37.734947-57.212812-45.023203-13.392171-45.02320301-13.39217 49.906335 139.989181 65.721851 167.994306 59.654377 30.42847001 59.654377 30.42846899l-29.15302499-77.91145899h174.07999998c20.698648 0 21.864769-48.685552 21.86476901-48.685551h-107.137367v-146.074876s71.825765 2.44156599 94.947758 0 23.14021399-49.906335 23.140214-49.90633399z m271.487544-191.11629899h-108.37637001l-76.690676-54.771246-15.815516 54.771246h-43.838861l1.22078301 439.445409h243.46419899z"  horiz-adv-x="1024" />

    
    <glyph glyph-name="eat" unicode="&#58998;" d="M512-66C263.48046875-66 62 135.48046875 62 384S263.48046875 834 512 834s450-201.48046875 450-450-201.48046875-450-450-450zM406.14013672 182.76035156c-10.93974609-2.64023438-19.19970703-12.08056641-19.19970703-23.7805664 0-13.79970703 11.19990234-24.97939453 25.059375-24.97939454h200.00039062A24.99960938 24.99960938 0 0 1 637.05957031 159c0 11.68066406-8.25996094 21.12011719-19.19970703 23.76035156 85.07988281 39.87949219 144.140625 125.71962891 144.140625 225.39990235h-500.00097656c0-99.54052734 59.20048828-185.51953125 144.140625-225.39990235z m330.80009766 330.77988282a74.99970703 74.99970703 0 0 1-72.00000001 72.15996093 76.13964844 76.13964844 0 0 1-70.54101562 19.91953125 74.83974609 74.83974609 0 0 1-57.459375 27 75.04013672 75.04013672 0 0 1-57.48046875-27c-27.19951172 6.52060547-57.31962891-3.71953125-75.05859375-24.97939453a76.79794922 76.79794922 0 0 1-17.46035156 1.99951172 75.01992187 75.01992187 0 0 1-71.74072266-53.02001953 74.83974609 74.83974609 0 0 1-53.20019531-71.49902344h500.00097656a74.33964844 74.33964844 0 0 1-25.06025391 55.39921875z"  horiz-adv-x="1024" />

    
    <glyph glyph-name="read" unicode="&#58932;" d="M172.18370333 625.26956999v-439.52810666l0.14563555-0.19417999a1.79617223 1.79617223 0 0 1 1.31072-0.53399779 1827.43495111 1827.43495111 0 0 0 289.81475555-31.8456411V594.6861033299999a408.94464 408.94464 0 0 1-42.91394332 12.67029333c-50.24426667 12.13629667-131.072 23.59296-248.35716778 17.96171889z m388.36148224-30.63201109v-441.46991445a1827.43495111 1827.43495111 0 0 0 289.81475555 31.8456411 1.84471666 1.84471666 0 0 1 1.31072 0.48545223 1.11653888 1.11653888 0 0 1 0.14563555 0.24272555v180.58808888V625.26956999c-117.28516779 5.67978667-198.06435555-5.77687666-248.35716778-17.91317333-18.15589888-4.36906667-32.33109333-8.83522333-42.91394332-12.67029333z m-36.02052779-548.8033189a48.49664 48.49664 0 0 0-25.04931556 0h-0.19418112l-0.97090332 0.29127111a1378.14926222 1378.14926222 0 0 1-90.34259001 18.44716999 1729.56785778 1729.56785778 0 0 1-237.14322887 23.39878002C118.73545443 89.42781666999997 75.09333333 131.71067220999998 75.09333333 185.74146333V366.03828109999995 625.9006577800001c0 50.34135666 38.98178333 93.69220779 90.92513224 96.21655665 126.60584334 6.31087445 217.1911589-5.92251221 277.3386422-20.38897777A467.68431445 467.68431445 0 0 0 512 679.88290333l0.82526777 0.33981667c15.38882333 6.31087445 37.76815445 14.17519445 67.81762446 21.40842667 60.19603001 14.56355555 150.7328 26.69985223 277.3386422 20.43752334A96.02237667 96.02237667 0 0 0 948.90666667 625.9006577800001v-440.15919445c0-54.03079111-43.6421211-96.26510222-95.73110557-97.77000221a1729.51931221 1729.51931221 0 0 1-237.09468444-23.35023445 1377.42108445 1377.42108445 0 0 1-85.97352221-17.37917668l-4.36906666-1.11653888-1.01944889-0.24272554-0.19418112-0.04854557z"  horiz-adv-x="1024" />

    
    <glyph glyph-name="heart-fill" unicode="&#58941;" d="M875.3 678.5c-49.9 50-116.5 77.5-187.5 77.5-55.4 0-108.5-16.9-153.5-49-13.5-9.6-31.6-9.6-45 0-45 32-98.1 49-153.5 49-71 0-137.6-27.5-187.5-77.5S70.8 562 70.8 491c0-70.9 27.6-137.5 77.8-187.5l283.2-285.8c21.3-21.5 49.8-33.4 80-33.4s58.7 11.9 80 33.4L875 303.5c50.1 50.1 77.8 116.7 77.8 187.5 0 71-27.6 137.6-77.5 187.5z"  horiz-adv-x="1024" />

    
    <glyph glyph-name="heart-empty" unicode="&#58943;" d="M875.3 678.5c-49.9 50-116.5 77.5-187.5 77.5-33.8 0-66.7-6.3-97.8-18.7-12.3-4.9-18.3-18.9-13.4-31.2s18.9-18.3 31.2-13.4c25.5 10.1 52.4 15.3 80.1 15.3 119.6 0 217-97.4 217-217 0-58-22.6-112.6-63.7-153.6l-0.1-0.1-283.4-285.8c-12.2-12.4-28.6-19.2-46-19.2s-33.7 6.8-45.9 19.2L182.6 337.29999999999995l-0.1 0.1c-41.1 41-63.7 95.6-63.7 153.6 0 119.6 97.3 217 216.9 217 119.9 0 217.5-97.6 217.5-217.5 0-13.3 10.7-24 24-24s24 10.7 24 24c0 70.9-27.6 137.6-77.8 187.8-50.1 50.1-116.7 77.7-187.6 77.7h-0.1-0.1c-70.9 0-137.5-27.5-187.4-77.5C98.3 628.6 70.8 562 70.8 491c0-70.9 27.6-137.5 77.8-187.5l283.2-285.8c21.3-21.5 49.8-33.4 80-33.4 30.3 0 58.7 11.9 80 33.4L875 303.5c50.1 50.1 77.8 116.7 77.8 187.5 0 71-27.6 137.6-77.5 187.5z"  horiz-adv-x="1024" />

    
    <glyph glyph-name="statistics" unicode="&#58984;" d="M958.4 438l-424.8-93.6 367.2-183.6c39.6 64.8 61.2 140.4 61.2 223.2 0 18 0 36-3.6 54zM947.6 492C904.4 672 753.2 808.8 566 830.4L454.4 384l493.2 108zM710-19.200000000000045c64.8 32.4 122.4 79.2 165.6 140.4l-367.2 183.6 201.6-324zM512 834C263.6 834 62 632.4 62 384s201.6-450 450-450c54 0 104.4 10.8 151.2 25.2L400.4 384 512 834z"  horiz-adv-x="1024" />

    
    <glyph glyph-name="arrow-left" unicode="&#59127;" d="M608.384 72.44799999999998l-243.242667 283.776a42.666667 42.666667 0 0 0 0 55.552l243.242667 283.776a36.266667 36.266667 0 0 0 57.770667-43.733333l-162.773334-244.138667a42.666667 42.666667 0 0 1 0-47.36l162.773334-244.138667a36.266667 36.266667 0 0 0-57.770667-43.733333z"  horiz-adv-x="1024" />

    
    <glyph glyph-name="arrow-down" unicode="&#59133;" d="M200.405333 480.426667l283.818667-243.285334a42.666667 42.666667 0 0 1 55.552 0l283.776 243.242667a36.266667 36.266667 0 0 1-43.733333 57.770667l-244.138667-162.773334a42.666667 42.666667 0 0 0-47.36 0L244.181333 538.154667A36.266667 36.266667 0 0 1 200.405333 480.426667z"  horiz-adv-x="1024" />

    
    <glyph glyph-name="arrow-right" unicode="&#59128;" d="M415.616 72.44799999999998l243.242667 283.776a42.666667 42.666667 0 0 1 0 55.552L415.616 695.552a36.266667 36.266667 0 0 1-57.770667-43.733333l162.773334-244.138667a42.666667 42.666667 0 0 0 0-47.36l-162.773334-244.138667a36.266667 36.266667 0 0 1 57.770667-43.733333z"  horiz-adv-x="1024" />

    
    <glyph glyph-name="menu" unicode="&#59131;" d="M462.28973037 660.16816418a49.71026963 49.71026963 0 0 0 49.71026963 49.71026962h386.63543088a49.71026963 49.71026963 0 1 0 0-99.42053925h-386.63543088a49.71026963 49.71026963 0 0 0-49.71026963 49.71026963z m-141.39810071-15.46541636a49.71026963 49.71026963 0 0 0 9.94205392-69.59437748l-140.84576394-187.79435237a5.52336372 5.52336372 0 0 1 0-6.62803594l140.84576394-187.79435237a49.71026963 49.71026963 0 0 0-79.5364314-59.65232356l-140.84576395 187.79435237a104.94390299 104.94390299 0 0 0 0 125.93268306l140.84576395 187.79435237a49.71026963 49.71026963 0 0 0 69.59437748 9.94205392zM407.05609701 384a49.71026963 49.71026963 0 0 0 49.71026964 49.71026963h441.86906423a49.71026963 49.71026963 0 1 0 0-99.42053926h-441.86906423a49.71026963 49.71026963 0 0 0-49.71026964 49.71026963z m55.23363336-276.16816418a49.71026963 49.71026963 0 0 0 49.71026963 49.71026963h386.63543088a49.71026963 49.71026963 0 1 0 0-99.42053925h-386.63543088a49.71026963 49.71026963 0 0 0-49.71026963 49.71026962z"  horiz-adv-x="1024" />

    
    <glyph glyph-name="close" unicode="&#59129;" d="M634.72222777 353.02817223a48.54518557 48.54518557 0 0 0 0 61.94365554l171.07323335 206.51121778a40.00123221 40.00123221 0 0 1-56.31241557 56.31241557l-206.51121778-171.07323335a48.54518557 48.54518557 0 0 0-61.94365554 0L274.51695445 677.79546112a40.00123221 40.00123221 0 0 1-56.31241557-56.31241557l171.07323335-206.51121778a48.54518557 48.54518557 0 0 0 0-61.94365554l-171.07323335-206.51121778a40.00123221 40.00123221 0 0 1 56.31241557-56.31241557l206.51121778 171.07323335a48.54518557 48.54518557 0 0 0 61.94365554 0l206.51121778-171.07323335a40.00123221 40.00123221 0 0 1 56.31241557 56.31241557l-171.07323335 206.51121778z"  horiz-adv-x="1024" />

    
    <glyph glyph-name="toc" unicode="&#59130;" d="M134.33787733 655.87245511a154.37368889 154.37368889 0 0 0 154.37368889 154.37368889h446.57686756a154.37368889 154.37368889 0 0 0 154.37368889-154.37368889v-543.74491022a154.37368889 154.37368889 0 0 0-154.37368889-154.37368889H288.71156622a154.37368889 154.37368889 0 0 0-154.37368889 154.37368889V655.87245511z m154.37368889 78.6432a78.6432 78.6432 0 0 1-78.6432-78.6432v-543.74491022c0-43.39939555 35.18555022-78.6432 78.6432-78.6432h446.57686756a78.6432 78.6432 0 0 1 78.6432 78.6432V655.87245511a78.6432 78.6432 0 0 1-78.6432 78.6432H288.71156622zM328.4992 578.16132267a37.86524445 37.86524445 0 0 0 37.86524445 37.86524444h266.97910044a37.86524445 37.86524445 0 1 0 0-75.73048889H366.36444445a37.86524445 37.86524445 0 0 0-37.86524445 37.86524445zM328.4992 408.29201067a37.86524445 37.86524445 0 0 0 37.86524445 37.86524444H512a37.86524445 37.86524445 0 1 0 0-75.73048889H366.36444445a37.86524445 37.86524445 0 0 0-37.86524445 37.86524445zM328.4992 238.36444444999995a37.86524445 37.86524445 0 0 0 37.86524445 37.86524444h242.745344a37.86524445 37.86524445 0 0 0 0-75.73048889H366.36444445a37.86524445 37.86524445 0 0 0-37.86524445 37.86524445z"  horiz-adv-x="1024" />

    
    <glyph glyph-name="emoji" unicode="&#59132;" d="M512 734.51565511a350.51565511 350.51565511 0 1 1 0-701.03131022 350.51565511 350.51565511 0 0 1 0 701.03131022zM85.753856 384a426.246144 426.246144 0 1 0 852.43403378 0 426.246144 426.246144 0 0 0-852.43403378 0zM317.78042311 517.51867733a60.70089955 60.70089955 0 1 1 121.40179911 0 60.70089955 60.70089955 0 1 1-121.40179911 0ZM584.81777778 517.51867733a60.70089955 60.70089955 0 1 1 121.40179911 0 60.70089955 60.70089955 0 1 1-121.40179911 0ZM647.90710045 384H376.03464533c-32.15633067 0-57.90469689-26.38916267-49.16656355-57.38040889 16.07816533-57.26390045 60.817408-136.78091378 185.13191822-136.78091378 124.256256 0 168.99549867 79.51701333 185.13191822 136.78091378 8.73813333 30.99124622-17.06848711 57.38040889-49.22481777 57.38040889z"  horiz-adv-x="1024" />

    
    <glyph glyph-name="arrow-top" unicode="&#59135;" d="M306.986667 316.11733300000003l186.752 228.864c10.496 12.928 26.026667 12.928 36.522666 0l186.752-228.864c10.538667-12.970667 11.178667-36.053333 1.322667-50.133333-8.064-11.52-20.650667-13.269333-30.122667-4.266667l-160.426666 136.789334a21.333333 21.333333 0 0 1-31.146667 0l-160.853333-136.789334c-9.472-9.002667-22.058667-7.253333-30.122667 4.266667-9.813333 14.08-9.216 37.162667 1.322667 50.133333z"  horiz-adv-x="1024" />

    
    <glyph glyph-name="github" unicode="&#58954;" d="M0 375.11400000000003c0 69.368 13.51 135.697 40.498 199.02 26.987 63.323 63.322 117.826 109.006 163.51 45.65 45.65 100.154 81.985 163.51 109.006A502.289 502.289 0 0 0 512 887.08c69.335 0 135.663-13.477 198.986-40.497 63.356-26.988 117.86-63.323 163.51-109.007 45.684-45.65 82.02-100.154 109.006-163.51A502.289 502.289 0 0 0 1024 375.148c0-111.318-32.504-211.472-97.511-300.494-64.975-88.989-148.48-150.825-250.484-185.476-5.351 0-9.348 0.99-11.99 2.973-2.676 1.982-4.196 3.997-4.526 6.012a59.458 59.458 0 0 0-0.495 8.984 7.663 7.663 0 0 0-0.991 3.006v128.99c0 40.63-14.336 75.314-43.008 103.986 76.667 13.345 134.011 41.819 171.999 85.487 37.987 43.669 57.013 96.52 57.013 158.522 0 58.005-18.663 108.346-56.022 150.99 13.345 42.678 11 87.668-6.97 135.003-18.697 1.322-39.011-1.85-61.01-9.513-22-7.663-38.318-14.831-49.02-21.47-10.637-6.673-20.316-13.016-28.97-19.027-38.68 10.669-81.854 16.02-129.486 16.02-47.7 0-90.509-5.351-128.529-16.02-7.333 5.35-15.855 11.164-25.5 17.507-9.68 6.342-26.493 14.005-50.507 22.99-23.982 9.018-45.65 12.85-65.008 11.495-18.663-47.996-20.645-93.646-5.979-136.984-36.665-42.678-54.998-92.986-54.998-150.99 0-62.002 18.663-114.689 55.99-157.994 37.326-43.339 94.67-72.01 171.998-86.016a142.303 142.303 0 0 1-39.969-70.029c-56.683-13.972-96.355-3.963-119.015 30.06-42.017 61.308-79.674 83.307-113.003 65.965-4.69-4.657-3.997-9.48 1.982-14.501 6.012-4.988 14.996-11.66 27.02-19.985 11.99-8.357 20.976-17.507 26.987-27.515 0.661-1.322 2.51-6.177 5.517-14.502a831.917 831.917 0 0 1 8.985-23.981c2.973-7.663 8.654-16.186 17.011-25.5 8.324-9.349 18.003-17.178 29.003-23.52 11-6.309 26.161-11 45.485-14.006 19.324-2.972 41.323-3.138 65.998-0.495v-100.484c0-0.991-0.165-2.643-0.495-5.021-0.33-2.312-0.991-3.964-1.982-4.955-0.991-1.024-2.345-2.015-4.03-3.039a12.52 12.52 0 0 0-6.474-1.486c-2.676 0-6.012 0.33-10.009 0.99-101.343 35.345-183.825 97.182-247.51 185.51C31.842 164.96299999999997 0 264.423 0 375.08000000000004z"  horiz-adv-x="1024" />

    
    <glyph glyph-name="quote-r" unicode="&#58882;" d="M913.644 537.7860000000001c44.438-158.868-53.754-397.946-302.008-446.942l-33.774 72.996c76.046 28.66 126.438 94.128 133.886 162.93-85.512 13.46-150.918 87.478-150.918 176.77 0.002 198.488 292.806 248.786 352.814 34.246z m-460.834 0c44.44-158.868-53.752-397.946-302.008-446.942L117.03 163.84000000000003c76.044 28.66 126.436 94.128 133.886 162.93C165.404 340.23 100 414.248 100 503.54c0 198.488 292.804 248.786 352.81 34.246z"  horiz-adv-x="1024" />

    
    <glyph glyph-name="quote-l" unicode="&#58883;" d="M110.356 230.21000000000004c-44.44 158.87 53.752 397.948 302.008 446.944l33.772-72.996c-76.044-28.662-126.436-94.128-133.886-162.932 85.514-13.46 150.918-87.474 150.918-176.77-0.002-198.484-292.806-248.78-352.812-34.246z m460.834 0c-44.44 158.87 53.752 397.948 302.008 446.944l33.772-72.996c-76.044-28.662-126.436-94.128-133.886-162.932 85.514-13.46 150.918-87.474 150.918-176.77-0.002-198.484-292.806-248.78-352.812-34.246z"  horiz-adv-x="1024" />

    


  </font>
</defs>
</svg>
